# xmcd
#
# Track frame offsets: 
#        183
#        13758
#        19083
#        37083
#        43308
#        63633
#        70008
#        96408
#        113095
#        123145
#        138633
#        157008
#        163608
#        182433
#        189708
#        202308
#        212995
#        227818
#        233733
#        249483
#        259385
#        264633
#        277008
#
# Disc length: 3873 seconds
#
# Revision: 0
# Processed by: cddbd v1.5.2PL0 Copyright (c) Steve Scherf et al.
# Submitted via: ExactAudioCopy v0.99pb5
#
DISCID=650f1f17
DTITLE=Johann Sebastian Bach - Vol. 26 - Sonntage nachTrinitatis II - 
DTITLE=BWV 80, 106, 130 - Richter
DYEAR=2013
DGENRE=Kantaten
TTITLE0=Kantate BWV 130 - Herr Gott, dich loben alle wir - Chor und Ch
TTITLE0=oral (Chor, Sopran) - Herr Gott, dich loben alle wir,
TTITLE1=Kantate BWV 130 - Herr Gott, dich loben alle wir - Rezitativ (
TTITLE1=Alt) - Ihr heller Glanz und hohe Weisheit zeigt
TTITLE2=Kantate BWV 130 - Herr Gott, dich loben alle wir - Arie (Baﬂ) 
TTITLE2=Der alte Drache brennt vor Neid
TTITLE3=Kantate BWV 130 - Herr Gott, dich loben alle wir - Rezitativ (
TTITLE3=Sopran, Tenor) - Wohl aber uns, daﬂ Tag und Nacht
TTITLE4=Kantate BWV 130 - Herr Gott, dich loben alle wir - Arie (Tenor
TTITLE4=) - Laﬂ , o F¸rst der Cherubinen
TTITLE5=Kantate BWV 130 - Herr Gott, dich loben alle wir - Choral - Da
TTITLE5=rum wir billig loben dich
TTITLE6=Kantate BWV 80 - Ein feste Burg ist unser Gott - Chor - Ein fe
TTITLE6=ste Burg ist unser Gott
TTITLE7=Kantate BWV 80 - Ein feste Burg ist unser Gott - Duett Arie (B
TTITLE7=aﬂ) mit Choral (Sopran) - Alles, was von Gott geboren
TTITLE8=Kantate BWV 80 - Ein feste Burg ist unser Gott - Rezitativ (Ba
TTITLE8=ﬂ) - Erw‰ge doch, Kind Gottes, die so groﬂe Liebe
TTITLE9=Kantate BWV 80 - Ein feste Burg ist unser Gott - Arie (Sopran)
TTITLE9=Komm in mein Herzenshaus
TTITLE10=Kantate BWV 80 - Ein feste Burg ist unser Gott - Choral - Und
TTITLE10=wenn die Welt voll Teufel w‰r
TTITLE11=Kantate BWV 80 - Ein feste Burg ist unser Gott - Rezitativ (T
TTITLE11=enor) - So stehe denn bei Christi blutgef‰rbter Fahne
TTITLE12=Kantate BWV 80 - Ein feste Burg ist unser Gott - Duett (Alt, 
TTITLE12=Tenor) - Wie selig sind doch die, die Gott im Munde tragen
TTITLE13=Kantate BWV 80 - Ein feste Burg ist unser Gott - Choral - Das
TTITLE13=Wort sie sollen lassen stahn
TTITLE14=Kantate BWV 106 - Gottes Zeit ist die allerbeste Zeit - Sonat
TTITLE14=ina. Molto Adagio
TTITLE15=Kantate BWV 106 - Gottes Zeit ist die allerbeste Zeit - Chor 
TTITLE15=Gottes Zeit ist die allerbeste Zeit
TTITLE16=Kantate BWV 106 - Gottes Zeit ist die allerbeste Zeit - Arios
TTITLE16=o (Tenor) - Ach Herr, lehre uns bedenken
TTITLE17=Kantate BWV 106 - Gottes Zeit ist die allerbeste Zeit - Arie 
TTITLE17=(Baﬂ) - Bestelle dein Haus
TTITLE18=Kantate BWV 106 - Gottes Zeit ist die allerbeste Zeit - Chor 
TTITLE18=und Arioso (Chor, Sopran) - Es ist der alte Bund
TTITLE19=Kantate BWV 106 - Gottes Zeit ist die allerbeste Zeit - Arie 
TTITLE19=(Alt) - In deine H‰nde befehl ich meinen Geist
TTITLE20=Kantate BWV 106 - Gottes Zeit ist die allerbeste Zeit - Arios
TTITLE20=o (Baﬂ) mit Choral (Alt) - Heute wirst du mit mir im Paradies
TTITLE20=sein
TTITLE21=Kantate BWV 106 - Gottes Zeit ist die allerbeste Zeit - Chora
TTITLE21=l (Chor Alt) Mit Fried und Freud ich fahr dahin
TTITLE22=Kantate BWV 106 - Gottes Zeit ist die allerbeste Zeit - Chor 
TTITLE22=Glorie, Lob, Ehr und Herrlichkeit
EXTD=
EXTT0=
EXTT1=
EXTT2=
EXTT3=
EXTT4=
EXTT5=
EXTT6=
EXTT7=
EXTT8=
EXTT9=
EXTT10=
EXTT11=
EXTT12=
EXTT13=
EXTT14=
EXTT15=
EXTT16=
EXTT17=
EXTT18=
EXTT19=
EXTT20=
EXTT21=
EXTT22=
PLAYORDER=
